<svg width="118" height="160" viewBox="0 0 118 160" fill="none" xmlns="http://www.w3.org/2000/svg">
<path d="M4.19824 11.001H106.228C107.828 11.001 109.147 12.2577 109.225 13.8564L116.084 155.855C116.167 157.567 114.801 159 113.088 159H11.0576C9.4572 159 8.13899 157.744 8.06152 156.146L1.20117 14.1455C1.11862 12.4339 2.48463 11.001 4.19824 11.001Z" fill="#14A1B5" stroke="#081C34" stroke-width="2"/>
<path opacity="0.2" d="M104.23 15.0459H5.03125L11.9624 153.22L98.22 153.105L112.555 140.386L104.23 15.0459Z" fill="black"/>
<path d="M104.989 15.041C106.047 56.4212 109.385 97.7114 114.989 138.723C107.129 144.138 99.3084 149.553 91.5275 154.968H17.3374C10.3348 108.627 6.22482 61.8941 5.03125 15.041H104.989Z" fill="white"/>
<path d="M31.9303 27.6836C32.1181 32.7419 32.3376 37.8033 32.5891 42.868H17.4236C17.169 37.8033 16.9494 32.7419 16.7648 27.6836H31.9303ZM33.4769 26.083H15.1084C15.3216 32.2084 15.5873 38.3369 15.9056 44.4686H34.2789C33.9606 38.3401 33.6949 32.2115 33.4817 26.083H33.4769Z" fill="#2D8BBA"/>
<path d="M25.2473 40.6985L24.5742 39.6282C23.1039 37.287 20.1062 35.199 19.0703 34.5874L19.8436 33.2162C21.8759 34.4514 23.6917 36.0123 25.2186 37.8365C27.529 34.6878 30.9469 31.434 35.6249 27.9365L36.613 29.2266C31.6199 32.9677 28.1257 36.3935 25.9203 39.6903L25.2473 40.6985Z" fill="#2D8BBA"/>
<path d="M33.4194 57.4219C33.7377 62.4865 34.0925 67.5512 34.4839 72.6158H19.3137C18.9223 67.5512 18.5674 62.4865 18.2492 57.4219H33.4194ZM34.9183 55.8213H16.5498C16.9253 61.953 17.3533 68.0847 17.8339 74.2164H36.2263C35.7489 68.0879 35.3193 61.9562 34.9374 55.8213H34.9183Z" fill="#2D8BBA"/>
<path d="M27.061 70.4463L26.3593 69.376C24.8318 67.0348 21.7767 64.9421 20.7266 64.3305L21.4569 62.9592C23.5279 64.1949 25.3864 65.7566 26.9608 67.5843C29.1853 64.4308 32.5124 61.1771 37.0998 57.6748C37.4387 58.1048 37.7824 58.5348 38.1213 58.9696C33.2284 62.7156 29.8249 66.1366 27.7102 69.4381C27.4907 69.7726 27.2758 70.1118 27.061 70.4463Z" fill="#2D8BBA"/>
<path d="M35.6963 87.1739C36.1514 92.2385 36.6414 97.3031 37.1665 102.368H21.9963C21.4712 97.3031 20.9811 92.2385 20.526 87.1739H35.6963ZM37.157 85.5732H18.7837C19.3247 91.7081 19.9166 97.8415 20.5594 103.973H38.9327C38.2963 97.8383 37.7044 91.705 37.157 85.5732Z" fill="#2D8BBA"/>
<path d="M29.6961 100.275L28.9658 99.2051C27.3714 96.8639 24.2591 94.7712 23.1946 94.1644C23.4237 93.6866 23.6719 93.247 23.8915 92.7931C25.9948 94.0308 27.8921 95.5897 29.5147 97.4134C31.658 94.2599 34.8993 91.0109 39.3864 87.5039L40.4461 88.7987C35.6726 92.5446 32.3311 95.9657 30.3119 99.2672L29.6961 100.275Z" fill="#2D8BBA"/>
<path d="M38.7656 116.927C39.3575 121.991 39.9829 127.054 40.6416 132.116H25.4714C24.8126 127.058 24.1873 121.995 23.5954 116.927H38.7656ZM40.1977 115.326H21.8101C22.5102 121.461 23.266 127.591 24.0775 133.717H42.4317C41.6266 127.591 40.8707 121.461 40.1643 115.326H40.1977Z" fill="#2D8BBA"/>
<path d="M32.5985 128.131L31.8681 127.061C30.2738 124.719 27.1614 122.627 26.0969 122.02C26.3261 121.542 26.5743 121.102 26.7939 120.649C28.8971 121.886 30.7944 123.445 32.4171 125.269C34.5604 122.115 37.8016 118.866 42.2887 115.359L43.3484 116.654C38.5749 120.4 35.2334 123.821 33.2142 127.123L32.5985 128.131Z" fill="#2D8BBA"/>
<path d="M114.99 138.724C107.129 144.139 99.3087 149.554 91.5278 154.969C93.2272 147.802 94.9982 140.635 96.8408 133.468L114.99 138.724Z" fill="#EBEBEB"/>
<path d="M93.9002 33.3837H41.9547C41.907 32.2418 41.864 31.0951 41.821 29.9531H93.7618C93.8047 31.0951 93.8525 32.2418 93.9002 33.3837Z" fill="#BCE3ED"/>
<path d="M82.9258 40.5976H42.2745C42.222 39.4509 42.1647 38.3089 42.1169 37.167H82.7635C82.8176 38.3105 82.8717 39.454 82.9258 40.5976Z" fill="#BCE3ED"/>
<path d="M62.6719 63.1258H43.5778C43.5014 61.9791 43.4202 60.8371 43.3486 59.6904H62.4427C62.5143 60.8371 62.5907 61.9791 62.6719 63.1258Z" fill="#BCE3ED"/>
<path d="M80.749 63.1258H66.7101L66.481 59.6904H80.5199C80.5915 60.8371 80.6679 61.9791 80.749 63.1258Z" fill="#BCE3ED"/>
<path d="M89.5611 70.3455H44.1028C44.0169 69.1988 43.9358 68.0569 43.8499 66.9102H89.3081C89.3941 68.0569 89.4752 69.1988 89.5611 70.3455Z" fill="#BCE3ED"/>
<path d="M98.3299 96.668H46.3796L46.7233 100.099H98.6736L98.3299 96.668Z" fill="#BCE3ED"/>
<path d="M86.3486 89.4482H45.6973C45.8023 90.5902 45.9073 91.7369 46.0171 92.8788H86.6636C86.5586 91.7369 86.4488 90.6045 86.3486 89.4482Z" fill="#BCE3ED"/>
<path d="M101.189 122.617H49.2391C49.1007 121.47 48.9623 120.328 48.8286 119.182H100.774C100.913 120.343 101.046 121.485 101.189 122.617Z" fill="#BCE3ED"/>
<path d="M73.7892 129.846H50.1412C49.9932 128.704 49.85 127.557 49.7068 126.415H73.3548C73.498 127.557 73.6412 128.704 73.7892 129.846Z" fill="#BCE3ED"/>
<path d="M87.9094 129.846H77.6988C77.5556 128.704 77.4076 127.557 77.2644 126.415H87.475C87.6182 127.557 87.7805 128.704 87.9094 129.846Z" fill="#BCE3ED"/>
<path d="M77.818 146.726C75.0017 146.726 73.3787 145.685 71.9466 144.767C70.5145 143.85 69.283 143.057 66.9058 143.057C64.5285 143.057 63.4688 143.888 62.347 144.767C61.2253 145.646 59.8505 146.726 57.0341 146.726C54.2177 146.726 52.5947 145.685 51.1674 144.767C49.7402 143.85 48.5086 143.057 46.1266 143.057C43.7446 143.057 42.6897 143.888 41.5679 144.767C40.4461 145.646 39.0713 146.726 36.2597 146.726C33.4481 146.726 31.8203 145.685 30.3883 144.767C28.9562 143.85 27.7294 143.057 25.3474 143.057C25.2854 142.579 25.2185 142.139 25.1565 141.681C27.9729 141.681 29.5911 142.722 31.0232 143.64C32.4552 144.557 33.682 145.35 36.0592 145.35C38.4364 145.35 39.4962 144.519 40.6179 143.64C41.7397 142.76 43.1193 141.681 45.9356 141.681C48.752 141.681 50.3655 142.722 51.7975 143.64C53.2296 144.557 54.4612 145.35 56.8384 145.35C59.2156 145.35 60.2753 144.519 61.3971 143.64C62.5189 142.76 63.8984 141.681 66.7148 141.681C69.5312 141.681 71.1494 142.722 72.5815 143.64C74.0135 144.557 75.2403 145.35 77.6223 145.35C77.6844 145.809 77.756 146.268 77.818 146.726Z" fill="#EBEBEB"/>
<path d="M81.8567 13.7131C80.2432 9.41293 76.5151 6.58916 72.5053 6.58916H64.3331C63.7247 6.58385 63.1313 6.39992 62.6264 6.06018C62.1215 5.72044 61.7274 5.23984 61.4928 4.67797C60.9151 3.30468 59.949 2.13031 58.7134 1.29927C57.4777 0.468229 56.0264 0.0167498 54.5378 0.000348308C53.0978 -0.0142688 51.6906 0.431526 50.5213 1.27284C49.3519 2.11416 48.4813 3.30709 48.0363 4.67797C47.8549 5.23888 47.499 5.72698 47.0206 6.07087C46.5422 6.41476 45.9664 6.59638 45.3774 6.58916H37.2099C33.1954 6.58916 29.7393 9.42727 28.546 13.7131L28.0686 15.4188H82.4868L81.8567 13.7131Z" fill="#081C34"/>
<path d="M82.1477 17.1011H28.5887C28.137 17.0959 27.7041 16.9194 27.3772 16.6073C27.0503 16.2952 26.8538 15.8707 26.8273 15.4193C26.8155 15.2024 26.8483 14.9855 26.9235 14.7817C26.9987 14.578 27.1148 14.3919 27.2646 14.2347C27.4144 14.0776 27.5948 13.9529 27.7946 13.8682C27.9944 13.7835 28.2094 13.7406 28.4264 13.7422H81.9854C82.4363 13.7474 82.8686 13.9232 83.1953 14.2343C83.5221 14.5454 83.7191 14.9688 83.7468 15.4193C83.7592 15.6366 83.727 15.8541 83.652 16.0583C83.5771 16.2626 83.4612 16.4494 83.3113 16.607C83.1614 16.7646 82.9808 16.8898 82.7806 16.9748C82.5805 17.0598 82.3651 17.1028 82.1477 17.1011Z" fill="#036F84"/>
</svg>
