<svg width="214" height="160" viewBox="0 0 214 160" fill="none" xmlns="http://www.w3.org/2000/svg">
<path d="M210.705 160H3.01341C1.3393 160 0 158.554 0 156.745C0 154.937 1.3393 153.49 3.01341 153.49H210.705C212.379 153.49 213.718 154.937 213.718 156.745C213.718 158.554 212.379 160 210.705 160Z" fill="#081C34"/>
<path d="M166.245 90.944C166.164 89.2641 176.884 94.0015 177.776 98.5505L185.307 121.729L189.773 120.785L200.166 158.563C200.166 158.563 184.745 159.204 184.464 158.564C184.184 157.924 161.832 100.539 161.832 100.539L166.245 90.944Z" fill="#B1B1B1" fill-opacity="0.1"/>
<path d="M35.9199 158.562H51.1478L65.6769 113.376L59.8156 111.179C64.6137 108.019 68.0886 94.7684 69.0303 89.0324L81.5381 85.1485C84.9556 80.6538 81.902 78.0677 77.4585 75.8914C77.4585 75.8914 62.6025 80.8355 62.8791 79.9051C63.1558 78.9748 59.1239 69.3652 59.1239 69.3652L54.4133 80.381L35.9199 158.562Z" fill="#B1B1B1" fill-opacity="0.1"/>
<path d="M77.2276 70.6451C70.7101 69.0276 66.2774 68.7363 61.2675 70.9855C56.8025 72.99 54.7958 77.4208 55.4868 84.9732L59.1257 87.2536" stroke="#DB926E" stroke-width="11.9277" stroke-linecap="round" stroke-linejoin="round"/>
<path d="M81.0228 67.5427C74.5053 65.9252 68.19 64.6012 63.1801 66.8505C58.7151 68.855 55.6948 69.4986 52.0137 76.4925L56.1141 83.3377" stroke="#FFB287" stroke-width="8.61442" stroke-linecap="round" stroke-linejoin="round"/>
<path d="M59.8669 81.9918L58.2217 72.5749L63.5744 68.3221L62.8092 67.0752L54.6831 69.1879L54.3613 78.6048L59.8669 81.9918Z" fill="#FFB287"/>
<path d="M171.351 113.1L138.884 8.39985C137.814 4.93824 134.386 2.92113 131.232 3.89389L131.203 3.90232L72.7612 21.8879L69.5902 22.865L68.6595 23.1513L59.6899 25.9138C56.5358 26.8822 54.8471 30.4744 55.921 33.9358L71.1147 82.9447L71.3968 83.8501L72.7569 88.2337V88.2381L73.3844 90.2552L88.3843 138.637C88.7078 139.682 89.2684 140.639 90.0225 141.433C90.7661 142.251 91.7238 142.844 92.7872 143.146C93.8507 143.449 94.9775 143.447 96.0401 143.142L142.973 128.698L167.582 121.122C170.737 120.154 172.425 116.562 171.351 113.1Z" fill="#151515" fill-opacity="0.15"/>
<path d="M125.374 2.82227C128.126 1.97557 131.218 3.72423 132.2 6.89062L164.666 111.595C165.648 114.761 164.084 117.941 161.334 118.787L89.8389 140.794L89.8262 140.798L89.793 140.808C87.0415 141.653 83.9476 139.903 82.9688 136.739L69.127 92.1055L66.9248 84.9932L66.2383 82.7783V82.7773L50.501 32.0342V32.0332C49.5188 28.8699 51.0827 25.6892 53.833 24.8408L53.832 24.8398L66.9033 20.8193L125.374 2.82227Z" fill="#14A1B5" stroke="#081C34" stroke-width="1.3253"/>
<path d="M159.536 109.82L90.9108 130.942L59.4629 29.5213L128.088 8.39941L159.536 109.82Z" fill="#108191"/>
<path d="M154.575 108.029L89.0117 128.209L58.9668 31.3124L124.53 11.1328L154.575 108.029Z" fill="#EBEBEB"/>
<path d="M155.265 104.493L89.7012 124.672L59.6562 27.7763L125.22 7.59668L155.265 104.493Z" fill="white"/>
<path d="M120.758 25.488L72.3834 39.6145L71.5215 36.663L119.897 22.5371L120.758 25.488Z" fill="#BCE3ED"/>
<path d="M125.036 33.1326L75.2532 48.1127L74.5 45.611L124.283 30.6309L125.036 33.1326Z" fill="#BCE3ED"/>
<path d="M110.546 47.259L78.1561 57.0065L77.4883 54.7895L109.878 45.042L110.546 47.259Z" fill="#BCE3ED"/>
<path d="M132.982 59.8873L85.8697 73.964L85.207 71.745L132.32 57.6689L132.982 59.8873Z" fill="#BCE3ED"/>
<path d="M98.5156 59.9884L81.1529 65.3699L80.3789 62.8746L97.7423 57.4932L98.5156 59.9884Z" fill="#BCE3ED"/>
<path d="M128.05 71.5675L87.6387 83.6505L86.8906 81.1474L127.302 69.0645L128.05 71.5675Z" fill="#BCE3ED"/>
<path d="M138.266 77.6724L90.2362 92.0371L89.5723 89.8188L137.603 75.4541L138.266 77.6724Z" fill="#BCE3ED"/>
<path d="M116.292 108.912L91.6598 116.105L91.0723 114.092L115.704 106.899L116.292 108.912Z" fill="#BCE3ED"/>
<path d="M140.852 86.4018L105.926 96.6003L105.193 94.0928L140.12 83.8936L140.852 86.4018Z" fill="#BCE3ED"/>
<path d="M140.248 93.2944L120.791 98.976L120.059 96.4685L139.516 90.7861L140.248 93.2944Z" fill="#BCE3ED"/>
<path d="M141.549 91.7078C148.146 90.4571 152.016 90.6128 156.892 93.1384C161.238 95.3894 163.146 99.3054 162.034 106.807L158.273 108.881" stroke="#DB926E" stroke-width="11.9277" stroke-linecap="round" stroke-linejoin="round"/>
<path d="M161.834 100.539L165.706 95.3076C168.377 94.6301 168.472 92.3451 170.535 97.5253L180.743 141.064C181.065 142.352 180.865 143.715 180.186 144.856C179.507 145.997 178.403 146.823 177.117 147.153L173.226 148.14C171.938 148.463 170.574 148.263 169.434 147.583C168.293 146.904 167.467 145.801 167.136 144.515L157.281 105.656C156.603 102.984 159.534 101.855 161.834 100.539Z" fill="#FFB287"/>
<path d="M162.297 109.186C167.488 113.389 167.183 120.346 163.571 121.645C158.219 123.571 152.669 116.842 148.761 110.949C142.945 102.177 147.847 98.8157 150.972 101.043C153.829 103.08 158.903 106.439 162.297 109.186Z" fill="#FFB287"/>
<path d="M148.689 99.3007C151.735 103.073 164.945 99.494 158.133 91.2119L165.795 99.8145C165.795 99.8145 161.57 102.653 161.416 102.692C161.263 102.731 156.708 108.775 154.425 105.53C154.244 105.272 148.689 99.3007 148.689 99.3007Z" fill="#FFB287"/>
<path d="M138.111 88.7171L141.211 84.6441L146.427 81.5664C159.495 83.496 164.21 93.5358 165.719 98.2407" stroke="#FFB287" stroke-width="8.61442" stroke-miterlimit="10" stroke-linecap="round"/>
<path d="M135.625 93.2656L131.258 94.7366L135.625 93.2656Z" fill="#3D50D8" stroke="#3A3634" stroke-width="1.63251" stroke-linecap="round" stroke-linejoin="round"/>
<path d="M169.191 80.085L133.416 92.6901C133.321 92.7327 133.235 92.7939 133.164 92.87C133.092 92.9462 133.037 93.0358 133.001 93.1336C132.964 93.2314 132.948 93.3356 132.952 93.4399C132.956 93.5442 132.981 93.6466 133.025 93.7411L133.321 94.5363C133.386 94.7435 133.524 94.9199 133.71 95.032C133.896 95.1441 134.116 95.1842 134.33 95.1446L170.963 84.8474C172.493 84.4173 171.743 83.7267 171.403 82.8127L170.796 81.1827C170.456 80.2687 170.685 79.5585 169.191 80.085Z" fill="#2D8BBA"/>
<path d="M172.013 82.0533C172.382 83.3953 172.073 84.6254 171.323 84.8008C170.573 84.9762 169.666 84.0304 169.297 82.6884C168.927 81.3464 169.236 80.1163 169.986 79.9409C170.736 79.7655 171.643 80.7113 172.013 82.0533Z" fill="#62B3D1"/>
<path d="M172.132 82.0667C172.436 83.1705 172.189 84.1804 171.582 84.3224C170.975 84.4644 170.236 83.6847 169.933 82.581C169.629 81.4772 169.875 80.4673 170.483 80.3253C171.09 80.1833 171.828 80.9629 172.132 82.0667Z" fill="#2D8BBA"/>
<path d="M170.482 80.3253L172.624 79.5449L173.849 83.5034L171.582 84.3224L170.482 80.3253Z" fill="#2D8BBA"/>
<path d="M174.682 81.1809C174.986 82.2847 174.613 83.3243 173.849 83.5029C173.085 83.6815 172.22 82.9315 171.916 81.8277C171.613 80.724 171.986 79.6844 172.749 79.5058C173.513 79.3272 174.379 80.0772 174.682 81.1809Z" fill="#62B3D1"/>
<path d="M160.946 120.416C160.386 120.417 159.833 120.3 159.322 120.073C158.81 119.846 158.352 119.514 157.978 119.099L151.724 112.184L136.739 99.108C135.036 97.7011 134.003 95.669 134.662 94.84C136.037 93.1109 139.771 93.1165 141.127 94.2195L156.892 105.032C157.041 105.156 157.333 106.458 157.463 106.601L163.912 113.732C164.431 114.306 164.772 115.018 164.895 115.783C165.017 116.547 164.915 117.33 164.601 118.038C164.287 118.745 163.775 119.347 163.126 119.769C162.477 120.191 161.72 120.416 160.946 120.416Z" fill="#FFB287"/>
<path d="M57.0168 77.8059L52.4632 73.2861C49.8336 72.4603 49.446 70.15 47.0972 75.2069L34.8925 118.13C34.4984 119.398 34.6221 120.771 35.2366 121.948C35.851 123.125 36.9064 124.011 38.1722 124.413L42.002 125.616C43.27 126.01 44.6426 125.886 45.8197 125.272C46.9969 124.657 47.8831 123.602 48.2846 122.336L60.2964 84.0886C61.1223 81.459 59.2396 79.2484 57.0168 77.8059Z" fill="#FFB287"/>
<path d="M61.5174 78.9826C58.7816 80.2568 54.8406 76.1415 56.8167 73.9482L53.5059 76.7057C53.5059 76.7057 53.5116 83.7145 53.6623 83.7619C53.813 83.8092 61.1866 85.6284 61.2813 85.3271C61.3759 85.0257 61.5174 78.9826 61.5174 78.9826Z" fill="#FFB287"/>
<path d="M52.2642 110.347L38.1895 106.067L40.1072 99.9121L54.0451 104.298L52.2642 110.347Z" fill="#DB926E"/>
<path d="M35.3369 99.833C35.4879 99.5644 35.8113 99.4297 36.1162 99.5273L57.2012 106.276L61.4346 107.634C61.7826 107.746 61.9745 108.119 61.8633 108.467L45.7617 158.765C45.6622 159.075 45.3508 159.267 45.0283 159.217L40.5791 158.523C40.5452 158.518 40.5112 158.51 40.4785 158.5L19.3936 151.751C19.2262 151.697 19.0873 151.579 19.0068 151.423C18.9264 151.267 18.9114 151.085 18.9648 150.918L35.2832 99.9561L35.3369 99.833Z" fill="#C7D1E0" stroke="#081C34" stroke-width="1.3253" stroke-linejoin="round"/>
<path d="M35.9131 100.157L19.5996 151.12L40.6844 157.869L56.9979 106.906L35.9131 100.157Z" fill="white"/>
<path d="M31.5996 108.657C31.7505 108.389 32.074 108.254 32.3789 108.352L52.3633 114.75L59.4629 117.022C59.6303 117.076 59.7701 117.194 59.8506 117.351C59.931 117.507 59.9462 117.689 59.8926 117.856L46.7939 158.765C46.7061 159.039 46.4502 159.226 46.1621 159.226H16.3008C16.0892 159.226 15.8904 159.124 15.7656 158.953C15.6409 158.782 15.6054 158.562 15.6699 158.36L31.5459 108.78L31.5996 108.657Z" fill="#2D8BBA" stroke="#081C34" stroke-width="1.3253" stroke-linejoin="round"/>
<path d="M16.3008 158.563H38.3337L52.1608 115.381L32.1771 108.982L16.3008 158.563Z" fill="#62B3D1"/>
<path d="M177.777 126.167L163.577 130.011L161.936 123.778L176.075 120.095L177.777 126.167Z" fill="#DB926E"/>
<path d="M182.374 119.433C182.507 119.427 182.639 119.461 182.754 119.532C182.907 119.627 183.015 119.781 183.053 119.957L189.155 148.611C189.229 148.959 189.015 149.304 188.67 149.392L167.223 154.828L163.395 155.922C163.22 155.972 163.032 155.948 162.875 155.855C162.719 155.763 162.607 155.61 162.566 155.433L155.991 126.778C155.911 126.428 156.125 126.077 156.474 125.988L160.781 124.894H160.782L182.241 119.452L182.374 119.433Z" fill="#C7D1E0" stroke="#081C34" stroke-width="1.3253" stroke-linejoin="round"/>
<path d="M188.985 148.749L167.525 154.19L160.945 125.535L182.405 120.095L188.985 148.749Z" fill="white"/>
<path d="M185.558 128.47C185.687 128.463 185.817 128.495 185.931 128.562C186.081 128.652 186.19 128.799 186.233 128.969L193.697 158.399C193.748 158.598 193.704 158.808 193.578 158.97C193.453 159.131 193.26 159.225 193.056 159.225L171.408 159.226L163.716 159.225C163.413 159.224 163.149 159.019 163.074 158.726L157.383 136.285C157.34 136.115 157.366 135.934 157.456 135.783C157.546 135.632 157.692 135.523 157.862 135.479L165.089 133.648L185.429 128.489L185.558 128.47Z" fill="#2D8BBA" stroke="#081C34" stroke-width="1.3253" stroke-linejoin="round"/>
<path d="M193.058 158.562L171.41 158.563L165.254 134.29L185.594 129.132L193.058 158.562Z" fill="#62B3D1"/>
<path d="M62.4397 94.3434C66.5005 89.04 67.3223 82.8494 64.2754 80.5163C61.2284 78.1832 55.4663 80.5911 51.4055 85.8945C47.3447 91.1978 46.5228 97.3884 49.5698 99.7215C52.6168 102.055 58.3788 99.6467 62.4397 94.3434Z" fill="#FFB287"/>
<path d="M82.4741 77.3955C82.1443 76.609 81.5717 75.9484 80.8398 75.5105C80.1079 75.0726 79.2552 74.8803 78.4062 74.9616C78.0033 74.9974 77.6084 75.0954 77.2355 75.2521L73.357 77.0546L68.4217 79.3538L67.891 79.5981L63.5999 81.5984H63.5957L65.8023 88.7108L67.2944 93.51C68.5872 91.6319 69.2386 88.9088 69.706 87.0769L70.6914 86.6643L75.6899 84.5712L79.4842 82.9837L80.3306 82.63C80.9159 82.3848 81.4344 82.0036 81.843 81.5181C82.2516 81.0325 82.5387 80.4567 82.6804 79.8381C82.7114 79.7162 82.7339 79.5923 82.7478 79.4673C82.8466 78.7647 82.752 78.0484 82.4741 77.3955Z" fill="#B1B1B1" fill-opacity="0.03"/>
<path d="M78.9078 73.8477L59.3767 82.045L55.3711 79.5347" stroke="#FFB287" stroke-width="10.6024" stroke-linecap="round" stroke-linejoin="round"/>
<path d="M109.877 10.2595C107.732 7.44447 104.353 6.18858 101.394 7.07906L95.3635 8.89394C94.9134 9.02512 94.4346 9.02117 93.9866 8.88259C93.5386 8.744 93.141 8.47687 92.8431 8.11433C92.1118 7.22919 91.1381 6.5771 90.0417 6.23824C88.9453 5.89938 87.774 5.88853 86.6718 6.20701C85.6059 6.51602 84.6665 7.15749 83.9904 8.03803C83.3143 8.91857 82.9368 9.99223 82.9128 11.1027C82.9035 11.5569 82.7493 11.9962 82.4726 12.3562C82.1959 12.7162 81.8113 12.9781 81.3751 13.1036L75.3478 14.9174C72.3853 15.8089 70.4652 18.6708 70.5363 22.0986L70.5628 23.4634L110.721 11.3783L109.877 10.2595Z" fill="#081C34"/>
<path d="M110.843 12.6958L71.319 24.59C70.9845 24.6864 70.6258 24.6523 70.3153 24.4946C70.0048 24.3369 69.7655 24.0672 69.6456 23.74C69.5888 23.5826 69.5648 23.4152 69.5751 23.2482C69.5853 23.0811 69.6297 22.918 69.7053 22.7688C69.781 22.6196 69.8864 22.4874 70.015 22.3806C70.1437 22.2737 70.2928 22.1943 70.4533 22.1473L109.977 10.2531C110.311 10.1568 110.669 10.1905 110.98 10.3475C111.29 10.5045 111.529 10.7732 111.65 11.0995C111.707 11.2571 111.732 11.4247 111.722 11.5921C111.712 11.7595 111.668 11.9231 111.592 12.0727C111.516 12.2223 111.411 12.3548 111.282 12.462C111.153 12.5691 111.004 12.6487 110.843 12.6958Z" fill="#036F84"/>
</svg>
